<?xml version="1.0" encoding="utf-8"?>
<!-- Generator: Adobe Illustrator 24.2.3, SVG Export Plug-In . SVG Version: 6.00 Build 0)  -->
<svg version="1.1" id="Layer_1" xmlns="http://www.w3.org/2000/svg" xmlns:xlink="http://www.w3.org/1999/xlink" x="0px" y="0px"
	 viewBox="0 0 266 78" style="enable-background:new 0 0 266 78;" xml:space="preserve">
<style type="text/css">
	.st0{fill:none;}
	.st1{fill:#FFFFFF;stroke:#B48C6A;stroke-width:7;stroke-miterlimit:10;}
	.st2{stroke:#000000;stroke-width:1.8662;stroke-miterlimit:10;}
</style>
<rect x="0.5" y="3.4" class="st0" width="270" height="65.4"/>
<polyline class="st1" points="197.6,71.1 205.1,71.1 260.2,71.1 260.2,7.9 6.7,7.9 6.7,71.1 64.7,71.1 69.8,71.1 "/>
<g>
	<path d="M102,63.6c-0.9-0.6-2.2-1.1-3.8-1.6c-2-0.6-3-1.2-3-2c0-1,0.9-1.5,2.7-1.5c2.3,0,3.4,0.7,3.4,2.2c0,0.2,0,0.5-0.1,0.9
		l2.2-0.3c0-2.5-1.8-3.8-5.3-3.8c-1.7,0-3.1,0.4-4.2,1.1c-1,0.7-1.6,1.6-1.6,2.8c0,0.9,0.3,1.6,0.8,2.3c0.8,0.9,2.1,1.6,3.9,2.2
		c2.2,0.6,3.3,1.4,3.3,2.3c0,1.2-0.9,1.7-2.7,1.7c-2.3,0-3.4-0.8-3.4-2.4c0-0.4,0.1-0.9,0.3-1.4l-2.2,0.4c0,0.3-0.1,0.5-0.1,0.7
		c0,2.5,2,3.7,5.9,3.7c1.8,0,3.2-0.4,4.3-1.1c1.1-0.7,1.6-1.7,1.6-2.9C104,65.5,103.4,64.5,102,63.6z"/>
	<path d="M104.5,57.7V59h4v11.6h4.9V59h3.9v-1.3H104.5z"/>
	<path d="M132,63.6c-0.2-4.1-2.5-6.2-7-6.2c-4.7,0-7.1,2.1-7.2,6.2c0,0.1,0,0.2,0,0.4c0,4.5,2.4,6.8,7.1,6.8c4.7,0,7.1-2.2,7.1-6.7
		C132,63.9,132,63.8,132,63.6z M126.7,68.6c-0.3,0.8-0.9,1.2-1.8,1.2s-1.5-0.4-1.8-1.2c-0.3-0.8-0.5-2.3-0.5-4.5c0-0.2,0-0.3,0-0.5
		c0-1.9,0.2-3.2,0.5-4s0.9-1.2,1.8-1.2s1.5,0.4,1.8,1.2c0.3,0.7,0.4,2,0.5,3.9c0,0.2,0,0.3,0,0.5C127.1,66.3,127,67.8,126.7,68.6z"
		/>
	<path d="M146.4,67.7c-0.1-1.2-0.4-2-0.7-2.4s-1.1-0.8-2.3-1.2c0.6-0.1,1.1-0.3,1.5-0.5c1.3-0.6,1.9-1.4,1.9-2.6
		c0-1-0.5-1.8-1.6-2.4c-1.1-0.6-2.5-0.9-4.3-0.9H134v12.9h4.6v-6.2h0.8c1.5,0,2.2,0.7,2.2,2.2v1v0.8c0,0.9,0.2,1.6,0.5,2.2h5
		C146.8,70.1,146.5,69.1,146.4,67.7z M138.7,58.9h0.9c1.8,0,2.6,0.7,2.6,2.2s-0.9,2.2-2.6,2.2h-0.9V58.9z"/>
	<path d="M153.9,69.2v-5.1h4.8v-1.3h-4.8V59h5.7v-1.3h-10.4v12.9h11.3v-1.3L153.9,69.2L153.9,69.2z"/>
	<path d="M171.2,63.6c-0.9-0.6-2.2-1.1-3.8-1.6c-2-0.6-3-1.2-3-2c0-1,0.9-1.5,2.7-1.5c2.3,0,3.4,0.7,3.4,2.2c0,0.2,0,0.5-0.1,0.9
		l2.2-0.3c0-2.5-1.8-3.8-5.3-3.8c-1.7,0-3.1,0.4-4.1,1.1c-1,0.7-1.6,1.6-1.6,2.8c0,0.9,0.3,1.6,0.8,2.3c0.8,0.9,2.1,1.6,3.9,2.2
		c2.2,0.6,3.3,1.4,3.3,2.3c0,1.2-0.9,1.7-2.7,1.7c-2.3,0-3.4-0.8-3.4-2.4c0-0.4,0.1-0.9,0.3-1.4l-2.2,0.4c0,0.3-0.1,0.5-0.1,0.7
		c0,2.5,2,3.7,5.9,3.7c1.8,0,3.2-0.4,4.3-1.1s1.6-1.7,1.6-2.9C173.1,65.5,172.5,64.5,171.2,63.6z"/>
</g>
<g>
	<path class="st2" d="M46.2,20.6H42c-1.8,5.6-5.8,16.8-6.9,22.1H35c-1.1-5.4-4.9-16.6-6.6-22.1h-4.1L22.6,48h3
		c0.4-6.7,1-17.6,1.1-23.9l0,0c1.2,6.1,5,17.6,6.9,23.9H36c2-6.3,6-17.9,7.5-23.9l0,0c0,6.5,0.7,17.2,1,23.9h3.1L46.2,20.6z"/>
	<path class="st2" d="M62.6,20.6h-3.9L50.4,48h3.1l2.6-8.9h9l2.7,8.9H71L62.6,20.6z M56.8,36.5c1-3.4,3.1-10,3.8-13.3h0.1
		c0.6,3.2,2.8,10,3.8,13.3H56.8z"/>
	<path class="st2" d="M89.7,40.5c-0.6-2.8-1.8-4.8-3.9-5.5v-0.1c4.7-1.2,6.4-9,2.8-12.2c-2.4-2.8-9.8-2.5-13.6-1.7v27h2.9V36.2
		c9.9-1.6,8.1,7.5,10.2,11.9h3.5C91.2,47,90.5,44.3,89.7,40.5z M81.2,33h-3.3V23C86.8,19.8,91,32.2,81.2,33z"/>
	<path class="st2" d="M109.3,20.6c-1.9,6.3-5.7,17.8-7.1,23.9h-0.1c-1.2-6-4.8-17.6-6.5-23.9h-3.4l8.1,27.5h3.5l8.9-27.5
		C112.7,20.6,109.3,20.6,109.3,20.6z"/>
	<path class="st2" d="M115.3,20.6V48h2.9V20.6H115.3z"/>
	<path class="st2" d="M139.8,20.6c0,6.5-0.2,16.7,0.4,22.8h-0.1c-2.2-5.6-9.3-17.2-12.4-22.8h-3.5V48h3c0-6.4,0.1-17.3-0.3-23.1h0.1
		c2.4,5.9,9.3,17.3,12.5,23.1h3.3V20.6H139.8z"/>
	<path class="st2" d="M144.8,20.6v3.5h7.9V48h2.9V24.1h7.9v-3.5H144.8z"/>
	<path class="st2" d="M179.6,40.5c-0.6-2.8-1.6-4.8-3.4-5.5v-0.1c4.3-1.2,5.8-9,2.5-12.2c-2.2-2.8-9-2.5-12.3-1.7v27h2.9V36.2
		c8.7-1.6,7.1,7.5,9,11.9h3.1C180.9,47,180.4,44.3,179.6,40.5z M172.6,33h-3.3V23C178.2,19.8,182.4,32.2,172.6,33z"/>
	<path class="st2" d="M196.5,20.6h-3.9L184.3,48h3.1l2.6-8.9h9l2.7,8.9h3.2L196.5,20.6z M190.7,36.5c1-3.4,3.1-10,3.8-13.3h0.1
		c0.6,3.2,2.8,10,3.8,13.3H190.7z"/>
	<path class="st2" d="M219.4,45.3c-15.8-0.1-10.4-29.1,5.1-21.1l0.8-2.9c-24.7-9.3-24.9,35.6,0,25.7l-0.7-2.8
		C223.3,44.9,221.3,45.3,219.4,45.3z"/>
	<path class="st2" d="M236.5,32.2l8.3-11.7h-2.9c-1.6,2.2-8.3,11.1-9.5,13.3h-0.1V20.6h-2.9V48h2.9V37.6l2.2-3L242,48h3.5
		L236.5,32.2z"/>
</g>
</svg>
